<?xml version="1.0" encoding="UTF-8" standalone="no"?>
<!-- Created with Inkscape (http://www.inkscape.org/) -->

<svg
   xmlns:dc="http://purl.org/dc/elements/1.1/"
   xmlns:cc="http://creativecommons.org/ns#"
   xmlns:rdf="http://www.w3.org/1999/02/22-rdf-syntax-ns#"
   xmlns:svg="http://www.w3.org/2000/svg"
   xmlns="http://www.w3.org/2000/svg"
   xmlns:xlink="http://www.w3.org/1999/xlink"
   xmlns:sodipodi="http://sodipodi.sourceforge.net/DTD/sodipodi-0.dtd"
   xmlns:inkscape="http://www.inkscape.org/namespaces/inkscape"
   width="960pt"
   height="540pt"
   viewBox="0 0 338.66666 190.50001"
   version="1.1"
   id="svg8"
   inkscape:version="0.92.5 (2060ec1f9f, 2020-04-08)"
   sodipodi:docname="thumb.svg"
   inkscape:export-filename="/home/honno/gdrive/GitHub/coinflip/report/.video_files/thumb/thumb.png"
   inkscape:export-xdpi="96"
   inkscape:export-ydpi="96">
  <defs
     id="defs2" />
  <sodipodi:namedview
     id="base"
     pagecolor="#ffffff"
     bordercolor="#666666"
     borderopacity="1.0"
     inkscape:pageopacity="0.0"
     inkscape:pageshadow="2"
     inkscape:zoom="0.49497475"
     inkscape:cx="562.82262"
     inkscape:cy="401.15405"
     inkscape:document-units="pt"
     inkscape:current-layer="layer1"
     showgrid="false"
     units="pt"
     inkscape:window-width="1848"
     inkscape:window-height="1016"
     inkscape:window-x="72"
     inkscape:window-y="27"
     inkscape:window-maximized="1"
     showborder="false"
     inkscape:snap-global="false"
     inkscape:snap-nodes="false"
     inkscape:snap-grids="true"
     inkscape:snap-page="true"
     inkscape:snap-bbox="true"
     inkscape:bbox-nodes="true" />
  <metadata
     id="metadata5">
    <rdf:RDF>
      <cc:Work
         rdf:about="">
        <dc:format>image/svg+xml</dc:format>
        <dc:type
           rdf:resource="http://purl.org/dc/dcmitype/StillImage" />
        <dc:title></dc:title>
      </cc:Work>
    </rdf:RDF>
  </metadata>
  <g
     inkscape:groupmode="layer"
     id="layer2"
     inkscape:label="bg"
     style="display:inline">
    <rect
       style="fill:#002b36;fill-opacity:1;stroke:none;stroke-width:0.35277778;stroke-miterlimit:4;stroke-dasharray:none;stroke-opacity:0.92156863"
       id="rect896"
       width="337.96112"
       height="189.79445"
       x="0.35277775"
       y="0.35277808" />
  </g>
  <g
     inkscape:label="Layer 1"
     inkscape:groupmode="layer"
     id="layer1"
     transform="translate(0,-106.49998)">
    <image
       sodipodi:absref="/home/honno/gdrive/GitHub/coinflip/report/.video_files/thumb/toss_coloured.png"
       xlink:href="toss_coloured.png"
       transform="rotate(4.3499503)"
       width="200.92783"
       height="363.87543"
       preserveAspectRatio="none"
       style="stroke-width:0.43191299;image-rendering:optimizeQuality"
       id="image893"
       x="227.78543"
       y="101.47536" />
    <g
       id="text4119"
       style="font-style:normal;font-weight:normal;font-size:90.31111145px;line-height:1.25;font-family:sans-serif;letter-spacing:0px;word-spacing:0px;fill:#93a1a1;fill-opacity:1;stroke:none;stroke-width:0.32311293"
       aria-label="coinflip"
       transform="matrix(0.8006627,0,0,0.83746533,2.4545058,-111.16339)">
      <path
         d="m 12.51098,349.62097 c 0,-6.17 1.147782,-11.69578 3.438153,-16.5663 2.354721,-4.85231 5.766745,-8.59876 10.221757,-11.23891 4.498902,-2.69415 9.84136,-3.85791 16.009128,-3.50555 2.961752,0.16921 5.500828,0.60474 7.621498,1.30558 2.114619,0.69885 4.630637,1.63528 7.543935,2.80732 0,0 -0.405818,16.64766 -0.405818,16.64766 0,0 -6.625962,-0.2891 -6.625962,-0.2891 0,0 -2.256135,-11.20604 -2.256135,-11.20604 -0.410944,-2.05433 -3.018885,-3.20965 -7.847049,-3.46635 -4.859612,-0.25838 -8.735145,1.62774 -11.611064,5.67121 -2.816415,3.98857 -4.228583,9.82384 -4.228583,17.49458 0,8.70335 1.588503,15.38452 4.755489,20.02879 3.223631,4.55289 7.372875,6.87177 12.432293,6.97076 2.895419,0.0567 5.608247,-0.36243 8.14042,-1.25482 2.591638,-0.88791 4.800993,-1.96156 6.631447,-3.22094 0,0 1.927234,4.36992 1.927234,4.36992 -1.825675,1.98503 -4.538705,3.77907 -8.148872,5.38429 -3.559224,1.54142 -7.204527,2.28794 -10.937052,2.2338 -5.703815,-0.0827 -10.572375,-1.51403 -14.588964,-4.30456 -3.967073,-2.80412 -6.99176,-6.60317 -9.06262,-11.39586 -2.004831,-4.8781 -3.009235,-10.36982 -3.009235,-16.46548 0,0 0,0 0,0"
         style="letter-spacing:-2.64583349px;fill:#93a1a1;fill-opacity:1;stroke-width:0.32311293"
         id="path26"
         inkscape:connector-curvature="0" />
      <path
         d="m 63.935051,350.90343 c 0,-6.46399 1.238727,-12.01161 3.709922,-16.63116 2.462884,-4.60403 5.678743,-8.00992 9.637605,-10.22025 4.00288,-2.26566 8.244078,-3.2654 12.719229,-3.00973 8.100982,0.46281 14.117253,3.60079 18.100133,9.39349 4.02343,5.76345 6.02663,13.14184 6.02663,22.15956 0,6.31241 -1.15741,11.72583 -3.47791,16.25132 -2.3281,4.54032 -5.42301,7.96512 -9.29471,10.27258 -3.828783,2.32101 -7.967639,3.45402 -12.421768,3.38942 -8.205181,-0.11902 -14.453574,-3.0619 -18.693431,-8.8528 -4.197765,-5.82304 -6.3057,-13.41556 -6.3057,-22.75243 0,0 0,0 0,0 m 25.581668,25.57986 c 4.45054,0.0832 7.850471,-1.85363 10.214496,-5.80022 2.356245,-3.93361 3.531475,-9.80989 3.531475,-17.63853 0,-7.75874 -1.07987,-13.95841 -3.24449,-18.60955 -2.171186,-4.66522 -5.665235,-7.13054 -10.501481,-7.38661 -4.478166,-0.23711 -7.969546,1.6004 -10.459653,5.52373 -2.432806,3.93985 -3.652265,9.90534 -3.652265,17.88659 0,7.90998 1.153595,14.21168 3.455314,18.89398 2.294451,4.6675 5.852853,7.04084 10.656604,7.13061 0,0 0,0 0,0"
         style="letter-spacing:-2.64583349px;fill:#93a1a1;fill-opacity:1;stroke-width:0.32311293"
         id="path28"
         inkscape:connector-curvature="0" />
      <path
         d="m 130.64906,314.62318 c -1.95678,-0.12399 -3.42794,-0.83575 -4.41043,-2.13639 -0.98387,-1.30246 -1.47632,-2.91822 -1.47632,-4.84593 0,-2.20311 0.58474,-3.98608 1.75278,-5.34724 1.22742,-1.35441 2.88104,-1.95424 4.95784,-1.80162 2.07067,0.15218 3.58931,0.87887 4.55952,2.17907 0.96886,1.2984 1.45278,2.90207 1.45278,4.81236 0,2.31964 -0.60496,4.12189 -1.81645,5.40843 -1.15287,1.29265 -2.79443,1.87233 -4.92813,1.73713 0,0 -0.0916,-0.006 -0.0916,-0.006 m -3.67343,18.01737 c 0,0 -7.03283,-2.21955 -7.03283,-2.21955 0,0 0,-5.49207 0,-5.49207 0,0 14.26941,-1.15574 14.26941,-1.15574 0,0 0.18224,0.0104 0.18224,0.0104 0,0 2.09232,1.96262 2.09232,1.96262 0,0 0,50.4883 0,50.4883 0,0 7.22912,0.95596 7.22912,0.95596 0,0 0,4.99211 0,4.99211 0,0 -24.23825,-0.37113 -24.23825,-0.37113 0,0 0,-5.07925 0,-5.07925 0,0 7.49799,-0.78621 7.49799,-0.78621 0,0 0,-43.30542 0,-43.30542"
         style="letter-spacing:-2.64583349px;fill:#93a1a1;fill-opacity:1;stroke-width:0.32311293"
         id="path30"
         inkscape:connector-curvature="0" />
      <path
         d="m 152.67079,333.93509 c 0,0 -6.41903,-2.15388 -6.41903,-2.15388 0,0 0,-5.49147 0,-5.49147 0,0 12.69095,-1.10732 12.69095,-1.10732 0,0 0.26377,0.015 0.26377,0.015 0,0 1.84345,1.916 1.84345,1.916 0,0 0,4.22555 0,4.22555 0,0 -0.0877,2.41013 -0.0877,2.41013 2.10103,-2.03638 4.86338,-3.82999 8.27903,-5.37968 3.39862,-1.54195 6.63738,-2.22196 9.71845,-2.04639 3.57694,0.20383 6.31776,1.15066 8.23253,2.83769 1.96541,1.68527 3.33779,4.18776 4.12074,7.50826 0.78204,3.25107 1.17272,7.62764 1.17272,13.13256 0,0 0,27.52454 0,27.52454 0,0 5.83297,0.79881 5.83297,0.79881 0,0 0,4.8937 0,4.8937 0,0 -19.95695,-0.30557 -19.95695,-0.30557 0,0 0,-4.86757 0,-4.86757 0,0 5.27825,-0.69181 5.27825,-0.69181 0,0 0,-27.8052 0,-27.8052 0,-3.89207 -0.22618,-6.9368 -0.67875,-9.1353 -0.45289,-2.26599 -1.30286,-3.95883 -2.55142,-5.07894 -1.25087,-1.18838 -3.07446,-1.84538 -5.4754,-1.96969 -2.06472,-0.1069 -4.27979,0.37784 -6.64664,1.45727 -2.37509,1.08318 -4.49648,2.38372 -6.36175,3.90187 0,0 0,38.10616 0,38.10616 0,0 5.9279,1.01698 5.9279,1.01698 0,0 0,4.90534 0,4.90534 0,0 -20.79652,-0.31843 -20.79652,-0.31843 0,0 0,-4.98011 0,-4.98011 0,0 5.61338,-0.80487 5.61338,-0.80487 0,0 2e-5,-42.51366 2e-5,-42.51366"
         style="font-style:normal;font-variant:normal;font-weight:normal;font-stretch:normal;font-size:86.07778168px;font-family:Merriweather;-inkscape-font-specification:Merriweather;letter-spacing:-1.58749998px;word-spacing:0px;fill:#93a1a1;fill-opacity:1;stroke-width:0.32311293"
         id="path32"
         inkscape:connector-curvature="0" />
      <path
         d="m 209.30802,335.72077 c 0,0 -7.71552,-0.39494 -7.71552,-0.39494 0,0 0,-4.49115 0,-4.49115 0,0 7.71552,-1.42332 7.71552,-1.42332 0,0 0,-4.56218 0,-4.56218 0,-4.01214 0.86988,-7.64397 2.6062,-10.8891 1.78581,-3.23283 4.07861,-5.7114 6.87309,-7.43675 2.83605,-1.77814 5.81935,-2.54493 8.94782,-2.30698 1.79605,0.1366 3.35039,0.54123 4.66472,1.21315 0,0 0,9.53736 0,9.53736 -0.47286,-0.54103 -1.4196,-1.08323 -2.8423,-1.62718 -1.37295,-0.60527 -2.90774,-0.96747 -4.6055,-1.08589 -2.50159,-0.17448 -4.34397,0.499 -5.52153,2.023 -1.12602,1.46605 -1.68975,4.12901 -1.68975,7.98697 0,0 0,7.61947 0,7.61947 0,0 11.02505,0.61692 11.02505,0.61692 0,0 0,6.21662 0,6.21662 0,0 -11.02505,-0.56435 -11.02505,-0.56435 0,0 0,41.666 0,41.666 0,0 8.88255,0.93953 8.88255,0.93953 0,0 0,4.69407 0,4.69407 0,0 -24.28821,-0.3719 -24.28821,-0.3719 0,0 0,-4.78138 0,-4.78138 0,0 6.97291,-0.74178 6.97291,-0.74178 0,0 0,-41.83619 0,-41.83619 m 31.31149,-22.75327 c 0,0 -6.33167,-1.49107 -6.33167,-1.49107 0,0 0,-4.09511 0,-4.09511 0,0 12.52482,-0.86511 12.52482,-0.86511 0,0 0.15408,0.0116 0.15408,0.0116 0,0 1.69231,1.5403 1.69231,1.5403 0,0 0,70.353 0,70.353 0,0 6.49684,0.87628 6.49684,0.87628 0,0 0,4.5915 0,4.5915 0,0 -20.86805,-0.31953 -20.86805,-0.31953 0,0 0,-4.66651 0,-4.66651 0,0 6.33167,-0.73323 6.33167,-0.73323 0,0 0,-65.20213 0,-65.20213"
         style="font-style:normal;font-variant:normal;font-weight:normal;font-stretch:normal;font-size:86.07778168px;font-family:Merriweather;-inkscape-font-specification:Merriweather;letter-spacing:-1.58749998px;word-spacing:0px;fill:#93a1a1;fill-opacity:1;stroke-width:0.32311293"
         id="path34"
         inkscape:connector-curvature="0" />
      <path
         d="m 266.61986,323.23916 c -1.59535,-0.10109 -2.7945,-0.73548 -3.5952,-1.90409 -0.8017,-1.17009 -1.20293,-2.62569 -1.20293,-4.3657 0,-1.98859 0.47644,-3.6016 1.42824,-4.83764 1.00035,-1.23054 2.34833,-1.78273 4.04172,-1.65828 1.68886,0.12411 2.9278,0.77076 3.71944,1.93908 0.79065,1.16685 1.18561,2.61264 1.18561,4.33844 0,2.09562 -0.49373,3.72729 -1.48236,4.8964 -0.94063,1.1741 -2.27973,1.70679 -4.01984,1.59653 0,0 -0.0747,-0.005 -0.0747,-0.005 m -2.99457,16.28589 c 0,0 -5.72891,-1.97168 -5.72891,-1.97168 0,0 0,-4.95566 0,-4.95566 0,0 11.6296,-1.11386 11.6296,-1.11386 0,0 0.14868,0.008 0.14868,0.008 0,0 1.70722,1.76253 1.70722,1.76253 0,0 0,45.60922 0,45.60922 0,0 5.90237,0.8517 5.90237,0.8517 0,0 0,4.51195 0,4.51195 0,0 -19.76657,-0.30266 -19.76657,-0.30266 0,0 0,-4.58301 0,-4.58301 0,0 6.10761,-0.72227 6.10761,-0.72227 0,0 0,-39.09473 0,-39.09473"
         style="font-style:normal;font-variant:normal;font-weight:normal;font-stretch:normal;font-size:86.07778168px;font-family:Merriweather;-inkscape-font-specification:Merriweather;letter-spacing:-1.58749998px;word-spacing:0px;fill:#93a1a1;fill-opacity:1;stroke-width:0.32311293"
         id="path36"
         inkscape:connector-curvature="0" />
      <path
         d="m 319.40867,358.44266 c 0,5.04277 -0.80071,9.64693 -2.40532,13.82074 -1.60887,4.12534 -3.91464,7.38387 -6.92524,9.77622 -3.02551,2.40419 -6.58207,3.58119 -10.67883,3.52176 -1.13495,-0.0165 -2.36684,-0.15517 -3.69625,-0.41652 -1.33227,-0.26193 -2.40492,-0.58103 -3.21661,-0.95726 0,0 0.21496,7.64309 0.21496,7.64309 0,0 0,9.18591 0,9.18591 0,0 7.40619,1.00897 7.40619,1.00897 0,0 0,4.4299 0,4.4299 0,0 -20.0715,0.049 -20.0715,0.049 0,0 0,-4.50205 0,-4.50205 0,0 5.24207,-1.00039 5.24207,-1.00039 0,0 0,-60.38613 0,-60.38613 0,0 -5.31519,-1.92169 -5.31519,-1.92169 0,0 0,-4.96174 0,-4.96174 0,0 10.29784,-1.06711 10.29784,-1.06711 0,0 0.14382,0.008 0.14382,0.008 0,0 1.50822,1.72407 1.50822,1.72407 0,0 0,5.36944 0,5.36944 1.43299,-1.92629 3.19579,-3.52738 5.28558,-4.80337 2.13,-1.269 4.48806,-1.82784 7.07153,-1.68024 2.75933,0.15764 5.27397,1.16853 7.54686,3.02801 2.31059,1.85506 4.15276,4.63104 5.53074,8.32693 1.37487,3.68752 2.06113,8.28685 2.06113,13.80423 0,0 0,0 0,0 M 301.38043,339.4403 c -1.79219,-0.0932 -3.4712,0.30254 -5.03607,1.18906 -1.56885,0.88878 -2.78388,1.88832 -3.64298,2.9981 0,0 0,34.28796 0,34.28796 0.33424,0.73428 1.16904,1.41732 2.50239,2.04838 1.37794,0.57015 2.8712,0.8695 4.47893,0.89895 3.62558,0.0664 6.52942,-1.70953 8.72159,-5.31786 2.23074,-3.59426 3.34306,-9.05812 3.34306,-16.4014 0,-6.44775 -0.97317,-11.29802 -2.92417,-14.55858 -1.91057,-3.26862 -4.3892,-4.98584 -7.44275,-5.14461 0,0 0,0 0,0"
         style="font-style:normal;font-variant:normal;font-weight:normal;font-stretch:normal;font-size:86.07778168px;font-family:Merriweather;-inkscape-font-specification:Merriweather;letter-spacing:-1.58749998px;word-spacing:0px;fill:#93a1a1;fill-opacity:1;stroke-width:0.32311293"
         id="path38"
         inkscape:connector-curvature="0" />
    </g>
    <g
       aria-label="Randomness testing for humans &amp; robots"
       style="font-style:normal;font-weight:normal;font-size:4.23333359px;line-height:1.25;font-family:sans-serif;letter-spacing:0px;word-spacing:0px;fill:#839496;fill-opacity:1;stroke:none;stroke-width:0.30555832"
       id="text4119-3"
       transform="matrix(0.84666145,0,0,0.88557843,-10.700026,-129.19666)">
      <path
         d="m 57.566868,413.68258 c 0,0 -3.001025,-9.19588 -3.001025,-9.19588 0,0 -4.915723,0.003 -4.915723,0.003 0,0 -1.52253,9.25795 -1.52253,9.25795 0,0 -2.801918,0.0195 -2.801918,0.0195 0,0 3.748324,-22.85553 3.748324,-22.85553 0,0 6.708367,0.0723 6.708367,0.0723 1.940323,0.0579 3.516121,0.64214 4.729715,1.75137 1.22128,1.10746 1.739227,2.75811 1.555326,4.95376 -0.125855,1.55387 -0.639176,2.84815 -1.540775,3.8836 -0.902706,1.03673 -2.01076,1.8099 -3.325087,2.31923 0,0 3.295985,9.5677 3.295985,9.5677 0,0 -0.01455,0.20236 -0.01455,0.20236 0,0 -2.91611,0.0202 -2.91611,0.0202 M 51.44947,393.40551 c 0,0 -1.415515,8.62428 -1.415515,8.62428 0,0 4.062333,0.0195 4.062333,0.0195 1.28079,0.001 2.432581,-0.36692 3.455971,-1.10363 1.021971,-0.74607 1.619896,-1.84005 1.794807,-3.28245 0.155442,-1.34873 -0.102026,-2.37255 -0.772836,-3.07213 -0.671422,-0.71061 -1.621213,-1.09109 -2.850449,-1.141 0,0 -4.274311,-0.0446 -4.274311,-0.0446"
         style="font-style:italic;font-variant:normal;font-weight:normal;font-stretch:normal;font-size:25.39999962px;line-height:1em;font-family:Roboto;-inkscape-font-specification:'Roboto Italic';fill:#839496;fill-opacity:1;stroke-width:0.30555832"
         id="path41"
         inkscape:connector-curvature="0" />
      <path
         d="m 72.36237,413.57988 c -0.05727,-0.29799 -0.08591,-0.59105 -0.08591,-0.87916 0,0 0.02863,-0.87991 0.02863,-0.87991 -1.42373,1.42948 -2.941285,2.13043 -4.553242,2.10072 -1.288276,-0.0114 -2.386059,-0.45332 -3.292485,-1.32642 -0.907547,-0.87418 -1.323076,-2.04184 -1.24575,-3.50205 0.07732,-1.41864 0.502418,-2.53765 1.274696,-3.3565 0.771467,-0.82833 1.720223,-1.41822 2.845578,-1.76992 1.133225,-0.35116 2.264698,-0.52653 3.394425,-0.52653 0,0 2.692797,0.0154 2.692797,0.0154 0,0 0.185838,-1.34158 0.185838,-1.34158 0.09528,-0.96618 -0.081,-1.74266 -0.529047,-2.32978 -0.43878,-0.59775 -1.12132,-0.9085 -2.048304,-0.93199 -0.803701,-0.0128 -1.565162,0.20127 -2.284248,0.64263 -0.719793,0.4418 -1.171224,1.10653 -1.353797,1.99404 0,0 -2.613847,0.012 -2.613847,0.012 0.106083,-1.11676 0.501348,-2.04643 1.185328,-2.78862 0.692963,-0.74147 1.519811,-1.29068 2.480089,-1.64781 0.968604,-0.35662 1.916785,-0.5274 2.844619,-0.51272 1.556495,0.0382 2.795496,0.55785 3.718613,1.55809 0.931446,0.98873 1.316032,2.33921 1.154625,4.05266 0,0 -1.240227,8.16429 -1.240227,8.16429 0,0 -0.08561,1.29462 -0.08561,1.29462 -0.01902,0.57532 0.04281,1.13473 0.185478,1.67813 0,0 -0.02854,0.26209 -0.02854,0.26209 0,0 -2.629721,0.0183 -2.629721,0.0183 m -4.077601,-2.15389 c 0.872949,0.0159 1.677825,-0.21011 2.414849,-0.67755 0.74584,-0.47732 1.362017,-1.09252 1.848859,-1.84559 0,0 0.57234,-3.442 0.57234,-3.442 0,0 -1.962131,-0.0127 -1.962131,-0.0127 -1.84759,0.003 -3.25796,0.39664 -4.228567,1.1831 -0.577208,0.46616 -0.918936,1.1542 -1.024855,2.06395 -0.09631,0.83749 0.08185,1.50329 0.534257,1.99708 0.461749,0.4831 1.07696,0.72761 1.845248,0.73374 0,0 0,0 0,0"
         style="font-style:italic;font-variant:normal;font-weight:normal;font-stretch:normal;font-size:25.39999962px;line-height:1em;font-family:Roboto;-inkscape-font-specification:'Roboto Italic';fill:#839496;fill-opacity:1;stroke-width:0.30555832"
         id="path43"
         inkscape:connector-curvature="0" />
      <path
         d="m 86.892028,399.00901 c -0.870645,-0.0231 -1.639181,0.22953 -2.305281,0.75814 -0.666713,0.51889 -1.240014,1.14565 -1.719679,1.88029 0,0 -1.893542,11.87267 -1.893542,11.87267 0,0 -2.565562,0.0178 -2.565562,0.0178 0,0 2.664602,-16.61783 2.664602,-16.61783 0,0 2.415185,-0.004 2.415185,-0.004 0,0 -0.366703,2.08182 -0.366703,2.08182 1.334283,-1.59789 2.886283,-2.38135 4.654594,-2.35264 1.62415,0.0382 2.718854,0.65295 3.286514,1.84376 0.576507,1.17974 0.790256,2.566 0.641568,4.15972 0,0 -1.64691,10.80877 -1.64691,10.80877 0,0 -2.547545,0.0177 -2.547545,0.0177 0,0 1.68071,-10.87362 1.68071,-10.87362 0.102583,-0.98639 -0.0047,-1.8205 -0.321834,-2.50265 -0.307974,-0.69261 -0.96636,-1.05582 -1.976117,-1.08946 0,0 0,0 0,0"
         style="font-style:italic;font-variant:normal;font-weight:normal;font-stretch:normal;font-size:25.39999962px;line-height:1em;font-family:Roboto;-inkscape-font-specification:'Roboto Italic';fill:#839496;fill-opacity:1;stroke-width:0.30555832"
         id="path45"
         inkscape:connector-curvature="0" />
      <path
         d="m 103.1825,413.36594 c 0,0 0.26062,-1.75397 0.26062,-1.75397 -1.19875,1.41782 -2.64725,2.11355 -4.347011,2.08536 -1.307423,-0.0311 -2.317243,-0.4842 -3.028196,-1.35998 -0.711657,-0.88676 -1.183403,-1.963 -1.414765,-3.22837 -0.231435,-1.26578 -0.29162,-2.4918 -0.180513,-3.67762 0.435007,-3.52586 1.576803,-6.06021 3.422023,-7.60166 0.948439,-0.79437 2.102369,-1.16775 3.460792,-1.12097 1.64867,0.0279 2.91921,0.68299 3.81363,1.96412 0,0 1.42147,-8.48056 1.42147,-8.48056 0,0 2.48076,0.0231 2.48076,0.0231 0,0 -3.62865,23.1349 -3.62865,23.1349 0,0 -2.26016,0.0157 -2.26016,0.0157 m -6.172956,-7.95326 c -0.08304,0.79927 -0.08304,1.65405 0,2.56421 0.08303,0.91007 0.336656,1.68781 0.760711,2.333 0.433013,0.64477 1.123452,0.97957 2.070571,1.00466 1.477944,0.0423 2.742334,-0.75061 3.794274,-2.37688 0,0 1.19186,-7.56481 1.19186,-7.56481 -0.54773,-1.49026 -1.53929,-2.26317 -2.97651,-2.31794 -0.99034,-0.0434 -1.81668,0.23164 -2.47843,0.82553 -0.662365,0.59445 -1.182567,1.3615 -1.560295,2.30111 -0.377928,0.92999 -0.645363,2.00709 -0.802181,3.23112 0,0 0,0 0,0"
         style="font-style:italic;font-variant:normal;font-weight:normal;font-stretch:normal;font-size:25.39999962px;line-height:1em;font-family:Roboto;-inkscape-font-specification:'Roboto Italic';fill:#839496;fill-opacity:1;stroke-width:0.30555832"
         id="path47"
         inkscape:connector-curvature="0" />
      <path
         d="m 109.86007,405.45522 c 0,0 0.0408,-0.34591 0.0408,-0.34591 0.15402,-1.49366 0.54796,-2.87654 1.18144,-4.14803 0.63291,-1.28039 1.4729,-2.30875 2.51925,-3.08509 1.0538,-0.77516 2.28575,-1.13899 3.69493,-1.09242 1.36162,0.0363 2.46154,0.45458 3.30098,1.2542 0.84736,0.78874 1.44881,1.80447 1.80498,3.04741 0.35599,1.23239 0.4761,2.52874 0.36044,3.88969 0,0 -0.0267,0.34275 -0.0267,0.34275 -0.15128,1.45071 -0.54298,2.80814 -1.1755,4.07291 -0.62417,1.26585 -1.45873,2.29025 -2.50445,3.07322 -1.04727,0.77416 -2.27554,1.14679 -3.68574,1.11697 -1.35895,-0.0203 -2.46785,-0.41748 -3.3255,-1.19234 -0.84964,-0.78586 -1.45586,-1.79435 -1.81803,-3.02525 -0.36235,-1.24155 -0.48469,-2.54447 -0.36688,-3.90811 0,0 0,0 0,0 m 2.48295,-0.34877 c 0,0 -0.0271,0.36031 -0.0271,0.36031 -0.0813,0.85079 -0.0542,1.72642 0.0813,2.62667 0.14445,0.89005 0.45581,1.6441 0.93388,2.26199 0.48675,0.61744 1.19824,0.9384 2.13381,0.96318 0.9882,0.0244 1.81812,-0.26441 2.49032,-0.86608 0.6805,-0.6111 1.21281,-1.38036 1.59725,-2.30784 0.38424,-0.93692 0.63432,-1.87805 0.75041,-2.82363 0,0 0.0268,-0.34334 0.0268,-0.34334 0.0804,-0.84587 0.0491,-1.71653 -0.0938,-2.61219 -0.13396,-0.90579 -0.44215,-1.67273 -0.92481,-2.30104 -0.47404,-0.63866 -1.17674,-0.97453 -2.10878,-1.00732 -0.99614,-0.043 -1.83631,0.24396 -2.51997,0.86138 -0.67531,0.61804 -1.20701,1.40189 -1.59476,2.35149 -0.38797,0.94012 -0.63621,1.88569 -0.74455,2.83642 0,0 2e-5,0 2e-5,0"
         style="font-style:italic;font-variant:normal;font-weight:normal;font-stretch:normal;font-size:25.39999962px;line-height:1em;font-family:Roboto;-inkscape-font-specification:'Roboto Italic';fill:#839496;fill-opacity:1;stroke-width:0.30555832"
         id="path49"
         inkscape:connector-curvature="0" />
      <path
         d="m 132.22814,399.16296 c -1.46754,-0.0637 -2.65171,0.6839 -3.55109,2.24453 0,0 -1.81547,11.79408 -1.81547,11.79408 0,0 -2.41909,0.0168 -2.41909,0.0168 0,0 2.49869,-16.09207 2.49869,-16.09207 0,0 2.26505,-0.005 2.26505,-0.005 0,0 -0.30422,1.76407 -0.30422,1.76407 1.20732,-1.39932 2.64547,-2.07436 4.313,-2.02703 0.79727,0.0235 1.53239,0.23867 2.20558,0.64536 0.67254,0.39646 1.13944,1.03769 1.40112,1.92373 1.35043,-1.73517 2.90672,-2.57768 4.66748,-2.53013 1.51432,0.0365 2.56807,0.60888 3.16334,1.71652 0.60336,1.09694 0.83165,2.44143 0.68521,4.03445 0,0 -1.53946,10.43538 -1.53946,10.43538 0,0 -2.36107,0.0164 -2.36107,0.0164 0,0 1.55766,-10.49718 1.55766,-10.49718 0.0951,-1.01816 -0.0259,-1.84079 -0.36315,-2.46824 -0.33737,-0.62776 -0.99095,-0.95304 -1.96164,-0.97563 -0.89388,-0.0224 -1.68458,0.2894 -2.37174,0.93583 -0.68784,0.63724 -1.12788,1.44754 -1.31967,2.43064 0,0 -1.61051,10.61671 -1.61051,10.61671 0,0 -2.37672,0.0165 -2.37672,0.0165 0,0 1.57663,-10.54613 1.57663,-10.54613 0.0962,-0.98493 -0.035,-1.7978 -0.39383,-2.43894 -0.35025,-0.6513 -0.99867,-0.98838 -1.9461,-1.01099 0,0 0,0 0,0"
         style="font-style:italic;font-variant:normal;font-weight:normal;font-stretch:normal;font-size:25.39999962px;line-height:1em;font-family:Roboto;-inkscape-font-specification:'Roboto Italic';fill:#839496;fill-opacity:1;stroke-width:0.30555832"
         id="path51"
         inkscape:connector-curvature="0" />
      <path
         d="m 154.98766,399.218 c -0.79052,-0.0219 -1.48829,0.21893 -2.09304,0.72268 -0.60527,0.49448 -1.12572,1.0917 -1.56115,1.79167 0,0 -1.71877,11.31128 -1.71877,11.31128 0,0 -2.32844,0.0162 -2.32844,0.0162 0,0 2.41833,-15.83115 2.41833,-15.83115 0,0 2.19233,-0.005 2.19233,-0.005 0,0 -0.33288,1.98357 -0.33288,1.98357 1.21128,-1.52267 2.62034,-2.26949 4.22597,-2.24251 1.47489,0.036 2.46908,0.62168 2.98464,1.75644 0.52363,1.12425 0.71777,2.44539 0.58272,3.96428 0,0 -1.49579,10.30069 -1.49579,10.30069 0,0 -2.31345,0.0161 -2.31345,0.0161 0,0 1.52623,-10.36163 1.52623,-10.36163 0.0932,-0.94 -0.004,-1.73486 -0.29227,-2.3849 -0.27967,-0.65997 -0.87754,-1.00601 -1.79443,-1.03792 0,0 0,0 0,0"
         style="font-style:italic;font-variant:normal;font-weight:normal;font-stretch:normal;font-size:25.39999962px;line-height:1em;font-family:Roboto;-inkscape-font-specification:'Roboto Italic';fill:#839496;fill-opacity:1;stroke-width:0.30555832"
         id="path53"
         inkscape:connector-curvature="0" />
      <path
         d="m 172.18988,410.18383 c -0.58846,1.00024 -1.33512,1.75768 -2.24051,2.27219 -0.90659,0.51521 -1.88106,0.76719 -2.9237,0.75541 -1.8473,-0.0253 -3.20881,-0.78717 -4.08159,-2.28694 -0.8739,-1.50169 -1.24396,-3.23876 -1.10937,-5.2095 0,0 0.0757,-0.76792 0.0757,-0.76792 0.13455,-1.33281 0.48762,-2.61207 1.05887,-3.83721 0.57077,-1.22412 1.32967,-2.22 2.27605,-2.9876 0.94508,-0.77617 2.05159,-1.1416 3.31873,-1.09715 1.23985,0.0346 2.2077,0.42779 2.90469,1.17892 0.70457,0.75039 1.17663,1.70059 1.41668,2.85088 0.24824,1.1499 0.31028,2.35204 0.18618,3.60691 0,0 -0.13652,1.19286 -0.13652,1.19286 0,0 -8.82055,0.0156 -8.82055,0.0156 -0.11737,1.23453 0.0629,2.3959 0.5405,3.48337 0.4773,1.08672 1.33058,1.64566 2.55843,1.67736 0.75899,0.015 1.43803,-0.17618 2.03736,-0.57328 0.60712,-0.40641 1.1597,-0.91778 1.6579,-1.53406 0,0 1.28117,1.26012 1.28117,1.26012 m -3.73828,-10.98218 c -1.14218,-0.0516 -2.03558,0.4076 -2.67921,1.37849 -0.64425,0.9718 -1.11736,2.00729 -1.41898,3.10613 0,0 6.56776,0.0132 6.56776,0.0132 0,0 0.0373,-0.23027 0.0373,-0.23027 0.12448,-1.03607 -0.0124,-1.9956 -0.41094,-2.87911 -0.39874,-0.88402 -1.09709,-1.34697 -2.09597,-1.38849 0,0 0,1e-5 0,1e-5"
         style="font-style:italic;font-variant:normal;font-weight:normal;font-stretch:normal;font-size:25.39999962px;line-height:1em;font-family:Roboto;-inkscape-font-specification:'Roboto Italic';fill:#839496;fill-opacity:1;stroke-width:0.30555832"
         id="path55"
         inkscape:connector-curvature="0" />
      <path
         d="m 182.67122,408.63384 c 0.10604,-0.87541 -0.13461,-1.47869 -0.72231,-1.81016 -0.58003,-0.3413 -1.18511,-0.60188 -1.81529,-0.78164 -0.62258,-0.17994 -1.23753,-0.4173 -1.84483,-0.71214 -0.69824,-0.33319 -1.26557,-0.78623 -1.70168,-1.35914 -0.42814,-0.57329 -0.62172,-1.33322 -0.58053,-2.27949 0.0412,-1.02268 0.32943,-1.87737 0.86444,-2.56372 0.53459,-0.69535 1.19196,-1.21307 1.97175,-1.55328 0.78709,-0.3493 1.57327,-0.51242 2.35854,-0.48967 1.24147,0.0344 2.30145,0.47185 3.18078,1.31166 0.88631,0.82924 1.30873,2.00736 1.26812,3.53526 0,0 -2.18412,-0.0167 -2.18412,-0.0167 0.0163,-0.80799 -0.20372,-1.44536 -0.66028,-1.91239 -0.44871,-0.47683 -1.01207,-0.72117 -1.69035,-0.73279 -0.64622,-0.0115 -1.26439,0.17243 -1.85443,0.55211 -0.59056,0.37046 -0.93529,0.9708 -1.03381,1.80084 -0.0575,0.54389 0.0534,0.96386 0.33247,1.2598 0.27898,0.28627 0.63165,0.50567 1.05789,0.65822 0,0 0.94577,0.31431 0.94577,0.31431 0.875,0.27582 1.63867,0.59418 2.29139,0.95509 0.66024,0.36055 1.16925,0.83025 1.52735,1.40913 0.36605,0.56907 0.52867,1.29984 0.48802,2.1926 -0.0488,1.08277 -0.34564,1.97222 -0.89091,2.6687 -0.5457,0.69704 -1.22233,1.21481 -2.03029,1.55319 -0.80892,0.33879 -1.63109,0.50181 -2.46656,0.48872 -1.29619,-0.0194 -2.43446,-0.46014 -3.41399,-1.32327 -0.98095,-0.86437 -1.45132,-2.11045 -1.41005,-3.73721 0,0 2.2374,0.007 2.2374,0.007 0,0.93612 0.24677,1.64663 0.74005,2.13125 0.50113,0.48422 1.14138,0.72881 1.92036,0.73404 0.65528,0.006 1.30993,-0.15965 1.96394,-0.49638 0.66155,-0.34596 1.04511,-0.94713 1.15116,-1.80364 0,0 0,-10e-6 0,-10e-6"
         style="font-style:italic;font-variant:normal;font-weight:normal;font-stretch:normal;font-size:25.39999962px;line-height:1em;font-family:Roboto;-inkscape-font-specification:'Roboto Italic';fill:#839496;fill-opacity:1;stroke-width:0.30555832"
         id="path57"
         inkscape:connector-curvature="0" />
      <path
         d="m 195.09764,408.58606 c 0.10409,-0.86734 -0.13215,-1.46507 -0.70907,-1.7935 -0.5694,-0.33817 -1.16337,-0.59636 -1.78198,-0.77447 -0.61114,-0.1783 -1.21479,-0.41347 -1.81093,-0.7056 -0.6854,-0.33012 -1.2423,-0.77898 -1.67037,-1.34659 -0.42026,-0.56798 -0.61028,-1.32089 -0.56985,-2.2584 0.0404,-1.01322 0.32337,-1.86002 0.84853,-2.54003 0.52475,-0.68894 1.17003,-1.2019 1.93548,-1.539 0.77263,-0.34611 1.54437,-0.50775 2.31523,-0.48525 1.2187,0.034 2.25926,0.46742 3.12249,1.29946 0.87008,0.82159 1.28477,1.98888 1.24491,3.50274 0,0 -2.14414,-0.0165 -2.14414,-0.0165 0.016,-0.80055 -0.19999,-1.43206 -0.64818,-1.89477 -0.44049,-0.47244 -0.99351,-0.71451 -1.65935,-0.726 -0.63436,-0.0114 -1.24118,0.17087 -1.82038,0.54706 -0.57971,0.36706 -0.9181,0.96186 -1.01482,1.78424 -0.0564,0.53886 0.0524,0.95496 0.32637,1.24815 0.27385,0.28363 0.62004,0.50101 1.03844,0.65215 0,0 0.92841,0.31141 0.92841,0.31141 0.85894,0.27328 1.6086,0.58872 2.24936,0.94631 0.64815,0.35723 1.14783,0.82262 1.49938,1.39619 0.35934,0.56384 0.51899,1.2879 0.47908,2.17244 -0.0479,1.07283 -0.33931,1.95408 -0.8746,2.64413 -0.5357,0.6906 -1.19994,1.20357 -1.99308,1.53878 -0.79408,0.33562 -1.60116,0.49708 -2.42129,0.48406 -1.27237,-0.0193 -2.38969,-0.45605 -3.35119,-1.31126 -0.96288,-0.85642 -1.42458,-2.09098 -1.38407,-3.70267 0,0 2.19618,0.007 2.19618,0.007 0,0.92747 0.24223,1.63142 0.72644,2.11158 0.49191,0.47977 1.12039,0.72214 1.88505,0.72735 0.64325,0.006 1.28588,-0.1581 1.92789,-0.4917 0.64942,-0.34275 1.02595,-0.93836 1.13006,-1.78698 0,0 0,-2e-5 0,-2e-5"
         style="font-style:italic;font-variant:normal;font-weight:normal;font-stretch:normal;font-size:25.39999962px;line-height:1em;font-family:Roboto;-inkscape-font-specification:'Roboto Italic';fill:#839496;fill-opacity:1;stroke-width:0.30555832"
         id="path59"
         inkscape:connector-curvature="0" />
      <path
         d="m 210.68516,412.61971 c -0.42253,0.17996 -0.93932,0.27217 -1.55061,0.27654 -0.9808,-0.0117 -1.64857,-0.42705 -2.00237,-1.24649 -0.34612,-0.81993 -0.4799,-1.7441 -0.40121,-2.77211 0,0 1.29713,-9.39887 1.29713,-9.39887 0,0 -2.26573,-0.007 -2.26573,-0.007 0,0 0.29546,-1.98997 0.29546,-1.98997 0,0 2.26472,0.0102 2.26472,0.0102 0,0 0.54145,-3.67707 0.54145,-3.67707 0,0 2.12616,0.0155 2.12616,0.0155 0,0 -0.55144,3.67112 -0.55144,3.67112 0,0 2.30828,0.0104 2.30828,0.0104 0,0 -0.29247,1.97995 -0.29247,1.97995 0,0 -2.29757,-0.007 -2.29757,-0.007 0,0 -1.32826,9.42587 -1.32826,9.42587 -0.0471,0.48523 -0.008,0.89545 0.11765,1.2306 0.12547,0.33509 0.41554,0.50603 0.86998,0.51287 0.10965,-6e-4 0.45021,-0.049 1.02135,-0.14526 0,0 -0.15252,2.11047 -0.15252,2.11047"
         style="font-style:italic;font-variant:normal;font-weight:normal;font-stretch:normal;font-size:25.39999962px;line-height:1em;font-family:Roboto;-inkscape-font-specification:'Roboto Italic';fill:#839496;fill-opacity:1;stroke-width:0.30555832"
         id="path61"
         inkscape:connector-curvature="0" />
      <path
         d="m 223.09865,409.93162 c -0.54522,0.96268 -1.237,1.69159 -2.0758,2.18661 -0.83987,0.49567 -1.74258,0.73794 -2.70839,0.72634 -1.71103,-0.0248 -2.97199,-0.75837 -3.78028,-2.20185 -0.80927,-1.44525 -1.15195,-3.11688 -1.02732,-5.01331 0,0 0.0701,-0.73896 0.0701,-0.73896 0.1246,-1.28257 0.45156,-2.51361 0.98057,-3.69261 0.52858,-1.17806 1.23141,-2.13653 2.10792,-2.87537 0.87535,-0.74713 1.90027,-1.09901 3.07405,-1.05645 1.14859,0.0331 2.04525,0.41138 2.69101,1.13428 0.6528,0.7222 1.0902,1.63679 1.31262,2.74403 0.23001,1.10687 0.2875,2.26405 0.17251,3.47198 0,0 -0.1265,1.14824 -0.1265,1.14824 0,0 -8.17099,0.0145 -8.17099,0.0145 -0.1087,1.18806 0.0582,2.30573 0.50059,3.35234 0.44206,1.04592 1.23237,1.58401 2.36968,1.61475 0.70306,0.0146 1.33209,-0.16927 1.8873,-0.55136 0.56243,-0.39106 1.07437,-0.88317 1.53593,-1.47628 0,0 1.18702,1.21314 1.18702,1.21314 m -3.46332,-10.57072 c -1.05803,-0.0496 -1.88556,0.39251 -2.48172,1.32696 -0.5967,0.9353 -1.03488,1.93185 -1.31423,2.98934 0,0 6.0838,0.0128 6.0838,0.0128 0,0 0.0346,-0.22164 0.0346,-0.22164 0.11533,-0.99727 -0.0115,-1.92084 -0.38073,-2.77122 -0.36941,-0.85086 -1.01638,-1.29638 -1.94172,-1.33624 0,0 0,2e-5 0,2e-5"
         style="font-style:italic;font-variant:normal;font-weight:normal;font-stretch:normal;font-size:25.39999962px;line-height:1em;font-family:Roboto;-inkscape-font-specification:'Roboto Italic';fill:#839496;fill-opacity:1;stroke-width:0.30555832"
         id="path63"
         inkscape:connector-curvature="0" />
      <path
         d="m 232.81289,408.44108 c 0.0983,-0.84288 -0.1248,-1.42377 -0.66963,-1.74297 -0.53771,-0.32866 -1.09861,-0.5796 -1.68277,-0.75272 -0.57709,-0.17328 -1.14709,-0.40184 -1.70998,-0.68573 -0.64715,-0.3208 -1.17296,-0.75696 -1.57713,-1.30851 -0.39679,-0.55189 -0.57619,-1.28346 -0.53802,-2.19441 0.0382,-0.98451 0.3053,-1.80733 0.80113,-2.46812 0.49546,-0.66949 1.10473,-1.168 1.82749,-1.49565 0.72956,-0.33642 1.4583,-0.49359 2.18623,-0.47182 1.1509,0.0329 2.1336,0.45394 2.94886,1.26245 0.82178,0.79837 1.21345,1.93277 1.1758,3.40403 0,0 -2.02506,-0.016 -2.02506,-0.016 0.0151,-0.77798 -0.18888,-1.39168 -0.61215,-1.84132 -0.41599,-0.45908 -0.93825,-0.69427 -1.56703,-0.70538 -0.59903,-0.011 -1.17205,0.16615 -1.71897,0.53175 -0.54738,0.35672 -0.8669,0.93471 -0.95822,1.73383 -0.0533,0.52362 0.0495,0.92794 0.30816,1.21284 0.25858,0.2756 0.58547,0.48683 0.98055,0.6337 0,0 0.87669,0.30261 0.87669,0.30261 0.81111,0.26558 1.51906,0.57213 2.12418,0.91965 0.61212,0.34718 1.08403,0.79947 1.41605,1.3569 0.33939,0.54798 0.49017,1.25166 0.45248,2.1113 -0.0452,1.0426 -0.32047,1.899 -0.82602,2.56953 -0.50594,0.67105 -1.13324,1.16944 -1.88227,1.49505 -0.74989,0.326 -1.51202,0.48274 -2.28645,0.46993 -1.20142,-0.019 -2.25639,-0.44361 -3.16419,-1.27476 -0.90907,-0.83231 -1.34495,-2.03191 -1.3067,-3.59789 0,0 2.07345,0.007 2.07345,0.007 0,0.90121 0.22871,1.58525 0.68589,2.05188 0.46446,0.46627 1.05789,0.70187 1.77992,0.70705 0.60741,0.006 1.21424,-0.15344 1.82052,-0.47753 0.61328,-0.33298 0.96887,-0.91174 1.06719,-1.73642 0,0 0,-10e-6 0,-10e-6"
         style="font-style:italic;font-variant:normal;font-weight:normal;font-stretch:normal;font-size:25.39999962px;line-height:1em;font-family:Roboto;-inkscape-font-specification:'Roboto Italic';fill:#839496;fill-opacity:1;stroke-width:0.30555832"
         id="path65"
         inkscape:connector-curvature="0" />
      <path
         d="m 241.9368,412.40278 c -0.40279,0.17564 -0.89543,0.26558 -1.47812,0.26974 -0.93489,-0.0115 -1.57139,-0.4172 -1.90862,-1.21727 -0.3299,-0.80053 -0.45741,-1.70281 -0.3824,-2.70643 0,0 1.23636,-9.17607 1.23636,-9.17607 0,0 -2.15956,-0.006 -2.15956,-0.006 0,0 0.28161,-1.94278 0.28161,-1.94278 0,0 2.15862,0.01 2.15862,0.01 0,0 0.5161,-3.59007 0.5161,-3.59007 0,0 2.02675,0.0147 2.02675,0.0147 0,0 -0.52567,3.58439 -0.52567,3.58439 0,0 2.20048,0.01 2.20048,0.01 0,0 -0.27883,1.93322 -0.27883,1.93322 0,0 -2.19025,-0.007 -2.19025,-0.007 0,0 -1.26613,9.20278 -1.26613,9.20278 -0.0448,0.47373 -0.007,0.87425 0.11215,1.20148 0.1196,0.32717 0.3961,0.4941 0.82929,0.50084 0.10451,-5.7e-4 0.42916,-0.0478 0.9736,-0.1417 0,0 -0.14538,2.06055 -0.14538,2.06055"
         style="font-style:italic;font-variant:normal;font-weight:normal;font-stretch:normal;font-size:25.39999962px;line-height:1em;font-family:Roboto;-inkscape-font-specification:'Roboto Italic';fill:#839496;fill-opacity:1;stroke-width:0.30555832"
         id="path67"
         inkscape:connector-curvature="0" />
      <path
         d="m 246.78399,393.80566 c 0,-0.42581 0.10731,-0.77827 0.32186,-1.05731 0.22187,-0.28795 0.5065,-0.43491 0.85379,-0.44095 0.34711,-0.006 0.6313,0.12761 0.85266,0.40088 0.22866,0.27322 0.33927,0.61776 0.3319,1.03369 0,0.41599 -0.11431,0.76335 -0.34297,1.04217 -0.22136,0.26992 -0.50187,0.40835 -0.84159,0.41521 -0.3399,0.007 -0.62083,-0.11718 -0.8427,-0.37223 -0.22194,-0.2642 -0.33295,-0.60471 -0.33295,-1.02146 0,0 0,0 0,0 m 1.60766,3.86669 c 0,0 -2.08518,14.7001 -2.08518,14.7001 0,0 -2.01395,0.014 -2.01395,0.014 0,0 2.0917,-14.7231 2.0917,-14.7231 0,0 2.00743,0.009 2.00743,0.009"
         style="font-style:italic;font-variant:normal;font-weight:normal;font-stretch:normal;font-size:25.39999962px;line-height:1em;font-family:Roboto;-inkscape-font-specification:'Roboto Italic';fill:#839496;fill-opacity:1;stroke-width:0.30555832"
         id="path69"
         inkscape:connector-curvature="0" />
      <path
         d="m 256.10745,399.52834 c -0.67869,-0.0201 -1.2777,0.20315 -1.7968,0.66999 -0.51953,0.45821 -0.96623,1.01157 -1.33993,1.66008 0,0 -1.47497,10.47801 -1.47497,10.47801 0,0 -1.99772,0.0139 -1.99772,0.0139 0,0 2.07485,-14.66363 2.07485,-14.66363 0,0 1.88141,-0.005 1.88141,-0.005 0,0 -0.2857,1.83772 -0.2857,1.83772 1.03965,-1.41098 2.24922,-2.10334 3.62775,-2.07886 1.26649,0.0329 2.12032,0.57536 2.56313,1.62687 0.44975,1.04184 0.61651,2.26624 0.50051,3.67397 0,0 -1.28472,9.54598 -1.28472,9.54598 0,0 -1.98661,0.0138 -1.98661,0.0138 0,0 1.31056,-9.60128 1.31056,-9.60128 0.08,-0.87109 -0.004,-1.60767 -0.25099,-2.21001 -0.24016,-0.61153 -0.75353,-0.93206 -1.54077,-0.96144 0,0 0,0 0,0"
         style="font-style:italic;font-variant:normal;font-weight:normal;font-stretch:normal;font-size:25.39999962px;line-height:1em;font-family:Roboto;-inkscape-font-specification:'Roboto Italic';fill:#839496;fill-opacity:1;stroke-width:0.30555832"
         id="path71"
         inkscape:connector-curvature="0" />
      <path
         d="m 270.67633,411.89653 c -0.20675,1.79774 -0.79887,3.26611 -1.77743,4.40599 -0.97292,1.14158 -2.20911,1.69489 -3.71012,1.65856 -0.78423,-0.0178 -1.54061,-0.24163 -2.26902,-0.6718 -0.72203,-0.43072 -1.30024,-1.05148 -1.73424,-1.86232 0,0 1.1278,-1.46058 1.1278,-1.46058 0.7291,1.27312 1.66272,1.93037 2.79995,1.97279 0.98444,0.026 1.78451,-0.32081 2.40092,-1.03983 0.62296,-0.70947 1.03077,-1.63475 1.22385,-2.7761 0,0 0.22519,-1.36378 0.22519,-1.36378 -0.93703,1.19047 -2.04394,1.76866 -3.32162,1.73319 -1.03552,-0.0194 -1.82768,-0.41605 -2.37557,-1.19042 -0.54836,-0.78398 -0.913,-1.73513 -1.09359,-2.85318 -0.17342,-1.11839 -0.21317,-2.20156 -0.11922,-3.24917 0,0 0.0217,-0.29544 0.0217,-0.29544 0.12283,-1.19959 0.39368,-2.37648 0.81237,-3.53025 0.41843,-1.15301 1.00231,-2.09908 1.7512,-2.83813 0.74801,-0.73819 1.67101,-1.0865 2.76823,-1.04565 1.35993,0.042 2.37796,0.67407 3.05574,1.89524 0,0 0.37424,-1.61238 0.37424,-1.61238 0,0 1.76133,0.008 1.76133,0.008 0,0 -1.92168,14.11534 -1.92168,14.11534 m -6.66426,-4.46029 c 0.0576,0.80423 0.25206,1.49608 0.58323,2.07538 0.33817,0.57002 0.87743,0.86629 1.61728,0.889 0.6601,0.0231 1.23354,-0.16724 1.72056,-0.57083 0.48664,-0.41219 0.91215,-0.9351 1.27664,-1.56869 0,0 0.92101,-6.60823 0.92101,-6.60823 -0.42107,-1.34423 -1.2033,-2.04066 -2.34801,-2.0887 -0.7882,-0.0381 -1.44458,0.21416 -1.96874,0.75711 -0.51741,0.54341 -0.92013,1.23483 -1.20795,2.07421 -0.28794,0.83083 -0.47878,1.66646 -0.57242,2.5067 -0.072,0.96546 -0.0792,1.81019 -0.0216,2.53405 0,0 0,0 0,0"
         style="font-style:italic;font-variant:normal;font-weight:normal;font-stretch:normal;font-size:25.39999962px;line-height:1em;font-family:Roboto;-inkscape-font-specification:'Roboto Italic';fill:#839496;fill-opacity:1;stroke-width:0.30555832"
         id="path73"
         inkscape:connector-curvature="0" />
      <path
         d="m 54.580511,431.01183 c 0,0 -3.278364,0.0611 -3.278364,0.0611 0,0 -2.40551,14.78547 -2.40551,14.78547 0,0 -2.680322,0.0766 -2.680322,0.0766 0,0 2.42899,-14.81254 2.42899,-14.81254 0,0 -2.458661,0.0459 -2.458661,0.0459 0,0 0.355973,-2.23694 0.355973,-2.23694 0,0 2.457484,-0.0422 2.457484,-0.0422 0,0 0.236437,-1.79133 0.236437,-1.79133 0.20682,-1.71718 0.807256,-3.10496 1.800353,-4.16266 1.00158,-1.06683 2.339812,-1.59941 4.012868,-1.59882 0.439649,-0.005 1.074236,0.0702 1.903258,0.22649 0,0 -0.321745,2.37511 -0.321745,2.37511 -0.497518,-0.10753 -0.97096,-0.16343 -1.420278,-0.16765 -0.948371,0.0131 -1.70207,0.33608 -2.260498,0.96942 -0.55885,0.62339 -0.907119,1.42661 -1.044509,2.40943 0,0 -0.235587,1.69421 -0.235587,1.69421 0,0 3.276737,-0.0562 3.276737,-0.0562 0,0 -0.366626,2.22452 -0.366626,2.22452"
         style="font-style:italic;font-variant:normal;font-weight:normal;font-stretch:normal;font-size:25.39999962px;line-height:1em;font-family:Roboto;-inkscape-font-specification:'Roboto Italic';fill:#839496;fill-opacity:1;stroke-width:0.30555832"
         id="path75"
         inkscape:connector-curvature="0" />
      <path
         d="m 55.811652,437.49756 c 0,0 0.04393,-0.36 0.04393,-0.36 0.165939,-1.554 0.590378,-2.99859 1.272872,-4.33311 0.681864,-1.34368 1.586793,-2.43055 2.713966,-3.26057 1.135146,-0.82891 2.462111,-1.23501 3.979853,-1.21929 1.466424,0.006 2.650927,0.41479 3.554868,1.22513 0.912427,0.79884 1.560039,1.83887 1.943538,3.12034 0.383299,1.2705 0.512618,2.61284 0.38809,4.02769 0,0 -0.02875,0.35629 -0.02875,0.35629 -0.162883,1.50885 -0.584631,2.92656 -1.265691,4.2538 -0.672089,1.32822 -1.570772,2.41087 -2.69688,3.248 -1.127842,0.82808 -2.450683,1.24377 -3.969574,1.2461 -1.46381,0.011 -2.65834,-0.37507 -3.582273,-1.15909 -0.915349,-0.79565 -1.568472,-1.82817 -1.958672,-3.09731 -0.390407,-1.28021 -0.522216,-2.62977 -0.395288,-4.04798 0,0 2e-6,0 2e-6,0 m 2.675036,-0.42004 c 0,0 -0.02918,0.3746 -0.02918,0.3746 -0.08756,0.88497 -0.05837,1.79317 0.08754,2.72439 0.15561,0.92041 0.491034,1.69575 1.006026,2.32582 0.524338,0.62939 1.290753,0.94576 2.298489,0.94946 1.064373,0.002 1.958222,-0.31719 2.682167,-0.9574 0.732869,-0.65018 1.306118,-1.46097 1.720121,-2.43246 0.413768,-0.98127 0.683074,-1.96374 0.808074,-2.94769 0,0 0.02885,-0.35692 0.02885,-0.35692 0.08652,-0.87963 0.05288,-1.78239 -0.100961,-2.7085 -0.144248,-0.93682 -0.476126,-1.72552 -0.995889,-2.36632 -0.510497,-0.65177 -1.267262,-0.98401 -2.27106,-0.99642 -1.072877,-0.0215 -1.977823,0.29579 -2.714216,0.95244 -0.727428,0.65714 -1.300176,1.48305 -1.717884,2.47767 -0.417944,0.9848 -0.685359,1.97201 -0.80208,2.96133 0,0 0,0 0,0"
         style="font-style:italic;font-variant:normal;font-weight:normal;font-stretch:normal;font-size:25.39999962px;line-height:1em;font-family:Roboto;-inkscape-font-specification:'Roboto Italic';fill:#839496;fill-opacity:1;stroke-width:0.30555832"
         id="path77"
         inkscape:connector-curvature="0" />
      <path
         d="m 79.925718,430.73864 c -1.626624,0.0101 -2.924858,0.84469 -3.892933,2.5055 0,0 -1.897167,11.89271 -1.897167,11.89271 0,0 -2.589816,0.074 -2.589816,0.074 0,0 2.68979,-16.75445 2.68979,-16.75445 0,0 2.494906,-0.0582 2.494906,-0.0582 0,0 -0.370131,1.93024 -0.370131,1.93024 1.033999,-1.54686 2.298411,-2.32186 3.792033,-2.32663 0.33045,0.005 0.731509,0.0695 1.20306,0.1944 0,0 -0.240453,2.67341 -0.240453,2.67341 -0.443396,-0.0837 -0.839851,-0.12739 -1.189289,-0.13105 0,0 0,0 0,0"
         style="font-style:italic;font-variant:normal;font-weight:normal;font-stretch:normal;font-size:25.39999962px;line-height:1em;font-family:Roboto;-inkscape-font-specification:'Roboto Italic';fill:#839496;fill-opacity:1;stroke-width:0.30555832"
         id="path79"
         inkscape:connector-curvature="0" />
      <path
         d="m 96.580425,430.12212 c -0.859009,-0.004 -1.617268,0.26304 -2.274457,0.80234 -0.657789,0.52965 -1.223413,1.16445 -1.696654,1.9044 0,0 -1.868157,11.83323 -1.868157,11.83323 0,0 -2.531117,0.0724 -2.531117,0.0724 0,0 3.730641,-23.49453 3.730641,-23.49453 0,0 2.518068,-0.0311 2.518068,-0.0311 0,0 -1.529267,8.90506 -1.529267,8.90506 1.316291,-1.57501 2.824281,-2.35557 4.522756,-2.34386 1.602477,0.003 2.682582,0.58534 3.242682,1.74597 0.56883,1.15953 0.77973,2.53195 0.63302,4.11821 0,0 -1.624964,10.77167 -1.624964,10.77167 0,0 -2.513553,0.0719 -2.513553,0.0719 0,0 1.658277,-10.83667 1.658277,-10.83667 0.101215,-0.98198 -0.0046,-1.80822 -0.31754,-2.47903 -0.303865,-0.68138 -0.953463,-1.02809 -1.949735,-1.03991 0,0 0,0 0,0"
         style="font-style:italic;font-variant:normal;font-weight:normal;font-stretch:normal;font-size:25.39999962px;line-height:1em;font-family:Roboto;-inkscape-font-specification:'Roboto Italic';fill:#839496;fill-opacity:1;stroke-width:0.30555832"
         id="path81"
         inkscape:connector-curvature="0" />
      <path
         d="m 112.2482,444.0472 c 0,0 0.31149,-1.62983 0.31149,-1.62983 -1.12924,1.36281 -2.58637,2.0457 -4.37337,2.04706 -1.60032,0.016 -2.68895,-0.58118 -3.26354,-1.79216 -0.56593,-1.2122 -0.77598,-2.61067 -0.62985,-4.19446 0,0 1.58724,-10.56415 1.58724,-10.56415 0,0 2.46961,-0.0424 2.46961,-0.0424 0,0 -1.5954,10.59134 -1.5954,10.59134 -0.0819,0.86607 -0.005,1.68292 0.23203,2.45029 0.23651,0.76712 0.82288,1.15797 1.75826,1.17274 1.74034,0.0229 3.09251,-0.79471 4.05871,-2.45108 0,0 1.85195,-11.87145 1.85195,-11.87145 0,0 2.4528,-0.0421 2.4528,-0.0421 0,0 -2.53381,16.25963 -2.53381,16.25963 0,0 -2.32612,0.0665 -2.32612,0.0665"
         style="font-style:italic;font-variant:normal;font-weight:normal;font-stretch:normal;font-size:25.39999962px;line-height:1em;font-family:Roboto;-inkscape-font-specification:'Roboto Italic';fill:#839496;fill-opacity:1;stroke-width:0.30555832"
         id="path83"
         inkscape:connector-curvature="0" />
      <path
         d="m 126.06499,429.58917 c -1.48049,-0.032 -2.67513,0.7448 -3.58246,2.33195 0,0 -1.83155,11.88584 -1.83155,11.88584 0,0 -2.44052,0.0698 -2.44052,0.0698 0,0 2.52084,-16.21781 2.52084,-16.21781 0,0 2.2851,-0.0541 2.2851,-0.0541 0,0 -0.30693,1.77849 -0.30693,1.77849 1.218,-1.43184 2.66885,-2.14124 4.35111,-2.13008 0.80428,0.006 1.54588,0.20629 2.22499,0.60007 0.67846,0.38352 1.14947,1.01738 1.41344,1.9016 1.36232,-1.77226 2.93227,-2.65241 4.70846,-2.64308 1.52759,0.004 2.59056,0.55552 3.19103,1.655 0.60865,1.08854 0.83893,2.43392 0.69122,4.03709 0,0 -1.55292,10.51454 -1.55292,10.51454 0,0 -2.38176,0.0681 -2.38176,0.0681 0,0 1.5713,-10.57709 1.5713,-10.57709 0.0959,-1.02468 -0.0262,-1.84827 -0.36632,-2.4711 -0.34032,-0.62313 -0.99963,-0.93557 -1.97884,-0.93708 -0.90172,-0.003 -1.69936,0.32744 -2.39255,0.9917 -0.69388,0.65505 -1.1378,1.47851 -1.33127,2.47011 0,0 -1.62468,10.6985 -1.62468,10.6985 0,0 -2.39765,0.0686 -2.39765,0.0686 0,0 1.59052,-10.62696 1.59052,-10.62696 0.0971,-0.99136 -0.0353,-1.80493 -0.39729,-2.44106 -0.35334,-0.64652 -1.00748,-0.97092 -1.96327,-0.97296 0,0 0,0 0,0"
         style="font-style:italic;font-variant:normal;font-weight:normal;font-stretch:normal;font-size:25.39999962px;line-height:1em;font-family:Roboto;-inkscape-font-specification:'Roboto Italic';fill:#839496;fill-opacity:1;stroke-width:0.30555832"
         id="path85"
         inkscape:connector-curvature="0" />
      <path
         d="m 149.74312,442.9752 c -0.0514,-0.2811 -0.077,-0.55808 -0.077,-0.83092 0,0 0.0257,-0.83383 0.0257,-0.83383 -1.27675,1.38088 -2.63748,2.07355 -4.0827,2.07613 -1.1549,0.0137 -2.13894,-0.38374 -2.95139,-1.19305 -0.8134,-0.81026 -1.18581,-1.90772 -1.11651,-3.29156 0.0693,-1.34449 0.45027,-2.41205 1.14246,-3.20219 0.69148,-0.79913 1.54192,-1.37599 2.55074,-1.7308 1.01595,-0.35447 2.03042,-0.54249 3.04341,-0.56442 0,0 2.41488,-0.0377 2.41488,-0.0377 0,0 0.16667,-1.27413 0.16667,-1.27413 0.0855,-0.91688 -0.0726,-1.6488 -0.47448,-2.19607 -0.39352,-0.5575 -1.00562,-0.83842 -1.8369,-0.84253 -0.72068,0.004 -1.40344,0.22122 -2.04816,0.6532 -0.64534,0.43238 -1.05005,1.07059 -1.21372,1.91447 0,0 -2.34306,0.0623 -2.34306,0.0623 0.0951,-1.05935 0.44938,-1.94723 1.06248,-2.66329 0.62118,-0.71559 1.36242,-1.2518 2.22333,-1.60879 0.86843,-0.35669 1.71861,-0.53704 2.55061,-0.54137 1.39585,0.006 2.50708,0.47338 3.33508,1.40257 0.83551,0.91819 1.18051,2.18975 1.03572,3.81576 0,0 -1.1125,7.75644 -1.1125,7.75644 0,0 -0.0768,1.22776 -0.0768,1.22776 -0.0171,0.54524 0.0384,1.07386 0.16637,1.5858 0,0 -0.0256,0.24876 -0.0256,0.24876 0,0 -2.35861,0.0674 -2.35861,0.0674 m -3.65629,-1.9617 c 0.78266,-0.002 1.50434,-0.23106 2.16521,-0.68781 0.66881,-0.4663 1.22138,-1.06071 1.65798,-1.78321 0,0 0.5133,-3.27067 0.5133,-3.27067 0,0 -1.75963,0.0259 -1.75963,0.0259 -1.65668,0.0381 -2.92117,0.43857 -3.7913,1.20196 -0.51743,0.4525 -0.82376,1.11051 -0.9187,1.97388 -0.0863,0.79477 0.0734,1.42171 0.47891,1.88055 0.41392,0.44857 0.96544,0.6683 1.65423,0.6594 0,0 0,0 0,0"
         style="font-style:italic;font-variant:normal;font-weight:normal;font-stretch:normal;font-size:25.39999962px;line-height:1em;font-family:Roboto;-inkscape-font-specification:'Roboto Italic';fill:#839496;fill-opacity:1;stroke-width:0.30555832"
         id="path87"
         inkscape:connector-curvature="0" />
      <path
         d="m 162.78031,428.89213 c -0.7816,-0.005 -1.47149,0.24957 -2.06941,0.76343 -0.59842,0.50463 -1.11298,1.10961 -1.54349,1.81494 0,0 -1.69933,11.28384 -1.69933,11.28384 0,0 -2.30203,0.0658 -2.30203,0.0658 0,0 2.39091,-15.7929 2.39091,-15.7929 0,0 2.16752,-0.0517 2.16752,-0.0517 0,0 -0.32912,1.97946 -0.32912,1.97946 1.19759,-1.53999 2.59073,-2.31278 4.17824,-2.32036 1.45827,0.004 2.44127,0.56526 2.95103,1.68257 0.51773,1.10669 0.70969,2.41622 0.57616,3.92944 0,0 -1.47894,10.27455 -1.47894,10.27455 0,0 -2.28739,0.0654 -2.28739,0.0654 0,0 1.50902,-10.33569 1.50902,-10.33569 0.0921,-0.93669 -0.004,-1.72498 -0.28897,-2.36517 -0.27652,-0.65026 -0.86765,-0.98153 -1.7742,-0.99362 0,0 0,0 0,0"
         style="font-style:italic;font-variant:normal;font-weight:normal;font-stretch:normal;font-size:25.39999962px;line-height:1em;font-family:Roboto;-inkscape-font-specification:'Roboto Italic';fill:#839496;fill-opacity:1;stroke-width:0.30555832"
         id="path89"
         inkscape:connector-curvature="0" />
      <path
         d="m 177.2905,437.9906 c 0.10688,-0.88121 -0.13569,-1.48164 -0.72808,-1.8016 -0.58468,-0.32999 -1.19459,-0.5784 -1.82982,-0.74513 -0.62756,-0.16707 -1.24743,-0.39195 -1.85959,-0.67472 -0.70384,-0.31928 -1.27573,-0.76175 -1.71534,-1.32744 -0.43158,-0.56623 -0.62672,-1.32499 -0.5852,-2.27595 0.0415,-1.02767 0.33209,-1.89208 0.8714,-2.59284 0.53886,-0.70979 1.2015,-1.24392 1.98755,-1.60249 0.7934,-0.36786 1.58587,-0.54877 2.37741,-0.54305 1.2514,0.007 2.31985,0.42355 3.20619,1.24752 0.89339,0.81321 1.31917,1.98681 1.27824,3.52166 0,0 -2.20155,0.0309 -2.20155,0.0309 0.0164,-0.81155 -0.20535,-1.44667 -0.66555,-1.9056 -0.4523,-0.46895 -1.02015,-0.70197 -1.70386,-0.69884 -0.65139,0.003 -1.27451,0.20069 -1.86928,0.59475 -0.59528,0.38484 -0.94278,0.99509 -1.04209,1.8306 -0.0579,0.54732 0.0538,0.96656 0.33514,1.25758 0.28122,0.28133 0.63671,0.49392 1.06636,0.63777 0,0 0.95334,0.29492 0.95334,0.29492 0.882,0.25783 1.65177,0.5608 2.30971,0.9089 0.66552,0.34757 1.17858,0.80803 1.53954,1.38141 0.36898,0.56333 0.5329,1.29347 0.49192,2.19066 -0.0492,1.08815 -0.3484,1.98762 -0.89802,2.69879 -0.55005,0.71174 -1.23209,1.24635 -2.0465,1.60374 -0.81539,0.35781 -1.64414,0.53944 -2.4863,0.54456 -1.30658,0.009 -2.45397,-0.40878 -3.44137,-1.25397 -0.98883,-0.84641 -1.46298,-2.0872 -1.42136,-3.72139 0,0 2.25535,-0.0421 2.25535,-0.0421 0,0.93987 0.24875,1.64783 0.74599,2.12361 0.50514,0.47522 1.15053,0.7068 1.93575,0.69503 0.66052,-0.008 1.32041,-0.18889 1.97965,-0.54126 0.66684,-0.36179 1.05347,-0.97373 1.16037,-1.83598 0,0 0,0 0,0"
         style="font-style:italic;font-variant:normal;font-weight:normal;font-stretch:normal;font-size:25.39999962px;line-height:1em;font-family:Roboto;-inkscape-font-specification:'Roboto Italic';fill:#839496;fill-opacity:1;stroke-width:0.30555832"
         id="path91"
         inkscape:connector-curvature="0" />
      <path
         d="m 198.59588,441.57847 c 0,0 -0.87285,-1.58338 -0.87285,-1.58338 -1.38933,1.32795 -2.92174,1.99823 -4.59821,2.00879 -1.42308,0.0126 -2.62339,-0.47294 -3.59971,-1.4578 -0.97775,-0.9863 -1.40647,-2.36734 -1.28511,-4.1418 0.089,-1.39452 0.55395,-2.54639 1.39411,-3.45488 0.84716,-0.90753 1.73352,-1.7108 2.65893,-2.40993 -0.34587,-0.70148 -0.66375,-1.42275 -0.95359,-2.16378 -0.2819,-0.74151 -0.39873,-1.53821 -0.35039,-2.38982 0.0967,-1.5518 0.57986,-2.80661 1.44871,-3.76368 0.86773,-0.96526 1.96283,-1.43714 3.28418,-1.41658 1.02326,0.0149 1.89739,0.39863 2.62296,1.15048 0.73274,0.74151 1.06698,1.7465 1.00333,3.01566 -0.0557,1.05308 -0.36213,1.96035 -0.91967,2.7222 -0.55799,0.7531 -1.19626,1.41899 -1.91505,1.99765 0,0 -1.47594,1.1882 -1.47594,1.1882 0,0 2.97255,5.32723 2.97255,5.32723 0.72514,-1.249 1.18293,-2.62211 1.37392,-4.12004 0,0 1.89493,-0.0407 1.89493,-0.0407 -0.20631,2.39682 -0.92097,4.40818 -2.14561,6.03577 0,0 1.87184,3.42755 1.87184,3.42755 0,0 -2.40933,0.0689 -2.40933,0.0689 m -5.43493,-15.71403 c -0.0562,0.59553 0.0241,1.16512 0.24089,1.70859 0.21672,0.54329 0.44942,1.05781 0.69809,1.54354 0,0 1.27392,-1.04202 1.27392,-1.04202 0.48009,-0.39501 0.90789,-0.82647 1.28349,-1.2944 0.37539,-0.46767 0.59493,-1.06419 0.65877,-1.7897 0.0479,-0.6217 -0.0998,-1.12277 -0.4431,-1.50339 -0.33552,-0.38093 -0.76315,-0.56768 -1.28307,-0.5601 -0.68852,6.1e-4 -1.24947,0.30109 -1.68252,0.90172 -0.42531,0.59148 -0.6742,1.27014 -0.74647,2.03576 0,0 0,0 0,0 m -2.70386,10.49966 c -0.12903,1.08133 0.0726,1.93674 0.60449,2.56569 0.53149,0.61901 1.24352,0.92564 2.13551,0.92028 0.65016,0.001 1.25962,-0.16625 1.82848,-0.50208 0.56837,-0.33556 1.10028,-0.7358 1.59582,-1.20069 0,0 -3.26772,-5.87412 -3.26772,-5.87412 -0.86766,0.72686 -1.54731,1.39843 -2.03838,2.01434 -0.48336,0.60673 -0.76952,1.299 -0.8582,2.07658 0,0 0,0 0,0"
         style="font-style:italic;font-variant:normal;font-weight:normal;font-stretch:normal;font-size:25.39999962px;line-height:1em;font-family:Roboto;-inkscape-font-specification:'Roboto Italic';fill:#839496;fill-opacity:1;stroke-width:0.30555832"
         id="path93"
         inkscape:connector-curvature="0" />
      <path
         d="m 215.49003,428.1912 c -1.33701,0.007 -2.4039,0.76106 -3.19935,2.26489 0,0 -1.55858,10.7754 -1.55858,10.7754 0,0 -2.127,0.0608 -2.127,0.0608 0,0 2.20912,-15.17858 2.20912,-15.17858 0,0 2.04975,-0.0491 2.04975,-0.0491 0,0 -0.30413,1.74914 -0.30413,1.74914 0.84966,-1.40064 1.8888,-2.10138 3.11654,-2.10357 0.27165,0.005 0.60137,0.064 0.98906,0.178 0,0 -0.1977,2.42372 -0.1977,2.42372 -0.36453,-0.0766 -0.69045,-0.11684 -0.97771,-0.12072 0,0 0,0 0,0"
         style="font-style:italic;font-variant:normal;font-weight:normal;font-stretch:normal;font-size:25.39999962px;line-height:1em;font-family:Roboto;-inkscape-font-specification:'Roboto Italic';fill:#839496;fill-opacity:1;stroke-width:0.30555832"
         id="path95"
         inkscape:connector-curvature="0" />
      <path
         d="m 216.79332,433.78501 c 0,0 0.0349,-0.32066 0.0349,-0.32066 0.13173,-1.38422 0.46869,-2.67048 1.01056,-3.85824 0.54142,-1.19605 1.26004,-2.16296 2.15529,-2.90071 0.90174,-0.73687 1.95604,-1.09666 3.16216,-1.08016 1.16561,0.008 2.10731,0.37421 2.82608,1.09832 0.7256,0.71397 1.24067,1.64266 1.54571,2.78626 0.30489,1.13389 0.40776,2.33138 0.3087,3.59301 0,0 -0.0229,0.3177 -0.0229,0.3177 -0.12956,1.34536 -0.46502,2.60876 -1.00671,3.79076 -0.5345,1.18278 -1.24912,2.14586 -2.14445,2.88928 -0.89655,0.73522 -1.94793,1.10214 -3.15487,1.09998 -1.16293,0.006 -2.11173,-0.34167 -2.84549,-1.04288 -0.72684,-0.71147 -1.2454,-1.63321 -1.55518,-2.76502 -0.30993,-1.14162 -0.41457,-2.34435 -0.31381,-3.60764 0,0 0,0 0,0 m 2.12397,-0.36833 c 0,0 -0.0232,0.33376 -0.0232,0.33376 -0.0695,0.78844 -0.0464,1.59785 0.0695,2.42806 0.12358,0.82061 0.38997,1.51241 0.799,2.07525 0.41648,0.56229 1.02531,0.84628 1.82594,0.85222 0.84576,0.005 1.55612,-0.27761 2.13153,-0.8465 0.58256,-0.57781 1.03828,-1.29929 1.36743,-2.1645 0.32898,-0.87399 0.54311,-1.74943 0.64251,-2.62656 0,0 0.0229,-0.31821 0.0229,-0.31821 0.0688,-0.78419 0.042,-1.58927 -0.0803,-2.41541 -0.1147,-0.83566 -0.37859,-1.53958 -0.79183,-2.11193 -0.40585,-0.58207 -1.00742,-0.87967 -1.80526,-0.89253 -0.85261,-0.0211 -1.57167,0.26011 -2.15673,0.84406 -0.57787,0.58433 -1.03282,1.31932 -1.36459,2.20491 -0.33194,0.87679 -0.54432,1.756 -0.63701,2.63738 0,0 0,0 0,0"
         style="font-style:italic;font-variant:normal;font-weight:normal;font-stretch:normal;font-size:25.39999962px;line-height:1em;font-family:Roboto;-inkscape-font-specification:'Roboto Italic';fill:#839496;fill-opacity:1;stroke-width:0.30555832"
         id="path97"
         inkscape:connector-curvature="0" />
      <path
         d="m 234.90811,440.82831 c -1.4716,-0.0217 -2.56804,-0.6635 -3.28739,-1.92652 0,0 -0.42063,1.74451 -0.42063,1.74451 0,0 -1.91328,0.0547 -1.91328,0.0547 0,0 3.03812,-21.19535 3.03812,-21.19535 0,0 2.06284,-0.0255 2.06284,-0.0255 0,0 -1.22331,7.87074 -1.22331,7.87074 0.9743,-1.31706 2.15811,-1.96379 3.55027,-1.94169 1.11159,0.009 1.95152,0.40453 2.52085,1.18752 0.56883,0.77319 0.93531,1.73169 1.09979,2.87577 0.16443,1.1438 0.19806,2.26742 0.10091,3.37119 -0.35138,3.16812 -1.26061,5.46026 -2.73004,6.87756 -0.75852,0.73332 -1.69098,1.10255 -2.79813,1.10704 0,0 0,0 0,0 m 1.20874,-13.29877 c -1.26529,-0.0222 -2.34045,0.76646 -3.22455,2.36765 0,0 -0.93074,6.53471 -0.93074,6.53471 0.45419,1.48173 1.30493,2.23277 2.55067,2.25387 0.82164,0.005 1.49927,-0.27367 2.03335,-0.83599 0.53363,-0.56185 0.94295,-1.26607 1.2282,-2.11271 0.29262,-0.85557 0.48763,-1.70845 0.58511,-2.55883 0,0 0.0225,-0.28777 0.0225,-0.28777 0.075,-0.7403 0.0862,-1.52473 0.0337,-2.3534 -0.0525,-0.81962 -0.25121,-1.52243 -0.59633,-2.10861 -0.34529,-0.58648 -0.91242,-0.8862 -1.70196,-0.89892 0,0 2e-5,0 2e-5,0"
         style="font-style:italic;font-variant:normal;font-weight:normal;font-stretch:normal;font-size:25.39999962px;line-height:1em;font-family:Roboto;-inkscape-font-specification:'Roboto Italic';fill:#839496;fill-opacity:1;stroke-width:0.30555832"
         id="path99"
         inkscape:connector-curvature="0" />
      <path
         d="m 242.42874,433.19381 c 0,0 0.0335,-0.31439 0.0335,-0.31439 0.12664,-1.35721 0.4506,-2.61827 0.97156,-3.78269 0.52055,-1.17256 1.21149,-2.1204 2.07226,-2.8435 0.86702,-0.72225 1.88077,-1.07471 3.04055,-1.05814 1.12086,0.008 2.02643,0.36764 2.71764,1.07798 0.69779,0.7004 1.19313,1.61131 1.48649,2.73292 0.29322,1.11209 0.39216,2.28648 0.29689,3.52369 0,0 -0.022,0.31155 -0.022,0.31155 -0.12461,1.3193 -0.44723,2.55813 -0.96817,3.71701 -0.51402,1.15962 -1.20124,2.1037 -2.06223,2.83225 -0.86215,0.7205 -1.87315,1.07972 -3.03369,1.07694 -1.11818,0.005 -2.03045,-0.33618 -2.73594,-1.02415 -0.69882,-0.698 -1.19738,-1.60206 -1.4952,-2.71198 -0.29798,-1.11952 -0.39857,-2.29886 -0.30171,-3.53749 0,0 0,0 0,0 m 2.04206,-0.36023 c 0,0 -0.0223,0.32726 -0.0223,0.32726 -0.0668,0.77306 -0.0446,1.56673 0.0668,2.38084 0.11882,0.80471 0.37495,1.48319 0.76822,2.03529 0.40045,0.55157 0.98585,0.83035 1.75568,0.8366 0.81324,0.005 1.49631,-0.27142 2.04962,-0.82899 0.5602,-0.56632 0.99843,-1.27359 1.31496,-2.1219 0.31636,-0.85691 0.52228,-1.7153 0.61787,-2.5754 0,0 0.022,-0.31204 0.022,-0.31204 0.0662,-0.76899 0.0404,-1.5585 -0.0772,-2.3687 -0.11029,-0.81952 -0.36405,-1.50992 -0.76145,-2.07134 -0.39027,-0.57094 -0.96875,-0.86298 -1.73595,-0.87587 -0.81986,-0.021 -1.51128,0.2545 -2.07382,0.82689 -0.55564,0.57277 -0.99307,1.2933 -1.31207,2.16155 -0.31915,0.8596 -0.52334,1.72161 -0.61247,2.58581 0,0 -1e-5,0 -1e-5,0"
         style="font-style:italic;font-variant:normal;font-weight:normal;font-stretch:normal;font-size:25.39999962px;line-height:1em;font-family:Roboto;-inkscape-font-specification:'Roboto Italic';fill:#839496;fill-opacity:1;stroke-width:0.30555832"
         id="path101"
         inkscape:connector-curvature="0" />
      <path
         d="m 259.40301,439.83997 c -0.39196,0.18171 -0.87134,0.28076 -1.43835,0.29709 -0.90972,0.008 -1.52907,-0.37859 -1.85721,-1.16073 -0.32101,-0.78274 -0.44508,-1.67009 -0.3721,-2.66167 0,0 1.20305,-9.0776 1.20305,-9.0776 0,0 -2.10134,0.0392 -2.10134,0.0392 0,0 0.27401,-1.92235 0.27401,-1.92235 0,0 2.10043,-0.036 2.10043,-0.036 0,0 0.50221,-3.55232 0.50221,-3.55232 0,0 1.97222,-0.0283 1.97222,-0.0283 0,0 -0.51153,3.54699 -0.51153,3.54699 0,0 2.14136,-0.0367 2.14136,-0.0367 0,0 -0.27135,1.91297 -0.27135,1.91297 0,0 -2.13139,0.0398 -2.13139,0.0398 0,0 -1.23205,9.10478 -1.23205,9.10478 -0.0437,0.46825 -0.007,0.86256 0.10912,1.18284 0.11639,0.32022 0.38544,0.47908 0.80697,0.47664 0.10171,-0.003 0.41762,-0.0562 0.94743,-0.16022 0,0 -0.14148,2.03571 -0.14148,2.03571"
         style="font-style:italic;font-variant:normal;font-weight:normal;font-stretch:normal;font-size:25.39999962px;line-height:1em;font-family:Roboto;-inkscape-font-specification:'Roboto Italic';fill:#839496;fill-opacity:1;stroke-width:0.30555832"
         id="path103"
         inkscape:connector-curvature="0" />
      <path
         d="m 268.74878,435.65904 c 0.0929,-0.82157 -0.11799,-1.38185 -0.6331,-1.68112 -0.50836,-0.30859 -1.03864,-0.54113 -1.59089,-0.69753 -0.54556,-0.1567 -1.08439,-0.36728 -1.61649,-0.63181 -0.61174,-0.29867 -1.10877,-0.71199 -1.49081,-1.23996 -0.37506,-0.52844 -0.54463,-1.23602 -0.50854,-2.12244 0.0361,-0.95795 0.28857,-1.76339 0.75725,-2.41602 0.46832,-0.66109 1.04425,-1.1583 1.72748,-1.49173 0.68968,-0.34212 1.3786,-0.50994 2.06678,-0.50377 1.08808,0.008 2.0172,0.39746 2.78804,1.16685 0.77702,0.75943 1.14738,1.85448 1.11178,3.2859 0,0 -1.91476,0.026 -1.91476,0.026 0.0143,-0.75679 -0.17858,-1.34934 -0.57878,-1.77786 -0.3933,-0.43784 -0.88706,-0.6558 -1.48151,-0.65367 -0.56633,0.002 -1.10804,0.18563 -1.62507,0.55233 -0.51744,0.35807 -0.81948,0.92659 -0.90581,1.70542 -0.0504,0.51018 0.0468,0.90118 0.29129,1.17288 0.24445,0.26267 0.55346,0.46136 0.92694,0.59607 0,0 0.82879,0.27629 0.82879,0.27629 0.76683,0.24164 1.43614,0.52522 2.00826,0.85076 0.57874,0.32507 1.02494,0.75523 1.33887,1.29048 0.3209,0.52592 0.46348,1.20709 0.42784,2.04376 -0.0428,1.01474 -0.30301,1.85309 -0.78102,2.51537 -0.47837,0.66279 -1.07147,1.16013 -1.77964,1.49194 -0.70895,0.33217 -1.42947,0.50002 -2.16158,0.50327 -1.13572,0.006 -2.13295,-0.38554 -2.99104,-1.1752 -0.85924,-0.79072 -1.27122,-1.94812 -1.23507,-3.47132 0,0 1.95983,-0.0357 1.95983,-0.0357 0,0.87619 0.21619,1.53658 0.64834,1.98097 0.43905,0.44389 1.00001,0.6609 1.68257,0.65127 0.57422,-0.007 1.14792,-0.17386 1.72109,-0.5013 0.57981,-0.33624 0.916,-0.90623 1.00896,-1.7101 0,0 0,0 0,0"
         style="font-style:italic;font-variant:normal;font-weight:normal;font-stretch:normal;font-size:25.39999962px;line-height:1em;font-family:Roboto;-inkscape-font-specification:'Roboto Italic';fill:#839496;fill-opacity:1;stroke-width:0.30555832"
         id="path105"
         inkscape:connector-curvature="0" />
    </g>
    <rect
       style="opacity:1;fill:#002a35;fill-opacity:1;stroke:none;stroke-width:3.52777767;stroke-miterlimit:4;stroke-dasharray:none;stroke-opacity:0.92156863"
       id="rect6328"
       width="70.559158"
       height="31.537804"
       x="275.82214"
       y="287.91281" />
  </g>
  <g
     inkscape:groupmode="layer"
     id="layer3"
     inkscape:label="box"
     style="display:none"
     sodipodi:insensitive="true">
    <rect
       style="display:inline;fill:none;fill-opacity:1;stroke:#000000;stroke-width:3.52777791;stroke-miterlimit:4;stroke-dasharray:none;stroke-opacity:0.92156863"
       id="rect896-6"
       width="337.96112"
       height="189.79445"
       x="0.35277778"
       y="0.35277867" />
  </g>
</svg>
